<svg width="48" height="25" viewBox="0 0 48 25" xmlns="http://www.w3.org/2000/svg" fill="black">
<path d="M23.9723 20.824C34.3836 20.824 43.0104 13.1835 44.5514 3.2037H23.9723H13.7422H3.39318H1.65662C0.797871 3.2037 0.0644648 2.5672 0.00399501 1.71061C-0.0625618 0.767045 0.71145 0 1.65734 0H3.14826H13.7422H23.9723H40.147H48C48 1.08629 47.9279 2.15569 47.7883 3.2037C46.222 14.9593 36.1562 24.0277 23.9723 24.0277C14.5754 24.0277 6.4383 18.6334 2.48886 10.7724C2.48886 10.7724 12.2788 13.0551 18.3258 12.4544C24.3727 11.8537 25.4924 11.4976 28.6577 11.1729C31.5579 10.8754 33.5982 10.9552 34.7027 11.0535C35.2648 11.1034 35.6658 11.5806 35.6658 12.145C35.6658 12.9118 34.9343 13.5174 34.169 13.4691C33.1336 13.4035 31.5489 13.4003 29.3785 13.6558C26.2477 14.0243 21.7329 15.0004 19.0866 15.0173C12.0786 15.4578 8.5545 14.2965 8.5545 14.2965C12.374 18.9193 17.5074 20.824 23.9723 20.824Z"/>
</svg>
